# xmcd
#
# Track frame offsets: 
#        150
#        18658
#        35654
#        57890
#        83197
#        110235
#        129716
#        156708
#        176650
#        204423
#
# Disc length: 3179 seconds
#
# Revision: 1
# Processed by: cddbd v1.5.2PL0 Copyright (c) Steve Scherf et al.
# Submitted via: ExactAudioCopy v1.3
#
DISCID=930c690a
DTITLE=Stanton Moore - With You in My Mind (The Songs of Allen Toussai
DTITLE=nt)
DYEAR=2017
DGENRE=Jazz
TTITLE0=Here Come the Girls [with Cyril Neville and Trombone Shorty]
TTITLE1=Life [with Cyril Neville and Nicholas Payton and Skerik]
TTITLE2=Java [with Nicholas Payton and Donald Harrison Jr and Trombone Sho
TTITLE2=rty]
TTITLE3=All These Things [with Kiki Chapman]
TTITLE4=Night People [with Maceo Parker]
TTITLE5=The Beat [with Cyril Neville]
TTITLE6=Riverboat [with Nicholas Payton and Donald Harrison Jr]
TTITLE7=Everything I Do Gone Be Funky [with Maceo Parker]
TTITLE8=With You in My Mind
TTITLE9=Southern Nights [with Nicholas Payton and Wendell Pierce]
EXTD=YEAR: 2017
EXTT0=
EXTT1=
EXTT2=
EXTT3=
EXTT4=
EXTT5=
EXTT6=
EXTT7=
EXTT8=
EXTT9=
PLAYORDER=
